{"title":"High Tension 2003 DVDRip Xvid LKRG","uid":10808387,"size":942534445,"categoryP":"video","categoryS":"movies","magnet":"?xt=urn:btih:d2563611754296e38cde2740ed37cfc220657ea3&amp;dn=High+Tension+2003+DVDRip+Xvid+LKRG&amp;tr=udp%3A%2F%2Ftracker.openbittorrent.com%3A80&amp;tr=udp%3A%2F%2Fopen.demonii.com%3A1337&amp;tr=udp%3A%2F%2Ftracker.coppersurfer.tk%3A6969&amp;tr=udp%3A%2F%2Fexodus.desync.com%3A6969","seeders":4,"leechers":0,"uploader":".BONE.","files":2,"time":1408400191,"description":"PLOT\n\nTwo college friends, Marie and Alexa, encounter loads of trouble (and blood Lots of BlooD) while on vacation\nat Alexa's parents' country home when a mysterious killer invades their quiet getaway.\n\nRuntime ..........: 1h 30mn\nFile Size ........: 899 MB\nResolution .......: 720 x 368 &lt;a href=&quot;\nhttp://www.imdb.com/title/tt0338095/&quot; rel=&quot;nofollow&quot; target=&quot;_NEW&quot;&gt;\nhttp://www.imdb.com/title/tt0338095/&lt;/a&gt;\nGenre ............: Horror,Thriller\nLanguage .........: English\nSubtitles ........: None\nComplete name : High Tension 2003 DVDRip Xvid LKRGHTension_LKRG.avi\nFormat : AVI\nFormat/Info : Audio Video Interleave\nFile size : 899 MiB\nDuration : 1h 30mn\nOverall bit rate : 1 382 Kbps\nWriting application : VirtualDubMod 1.5.10.2 (build 2540/release)\nWriting library : VirtualDubMod build 2540/release\nVideo\nID : 0\nFormat : MPEG-4 Visual\nFormat profile : Advanced Simple@L5\nFormat settings, BVOP : 2\nFormat settings, QPel : No\nFormat settings, GMC : No warppoints\nFormat settings, Matrix : Default (H.263)\nMuxing mode : Packed bitstream\nCodec ID : XVID\nCodec ID/Hint : XviD\nDuration : 1h 30mn\nBit rate : 924 Kbps\nWidth : 720 pixels\nHeight : 368 pixels\nDisplay aspect ratio : 2.40:1\nFrame rate : 23.976 fps\nColor space : YUV\nChroma subsampling : 4:2:0\nBit depth : 8 bits\nScan type : Progressive\nCompression mode : Lossy\nBits/(Pixel*Frame) : 0.145\nStream size : 601 MiB (67%)\nWriting library : XviD 1.2.1 (UTC 2008-12-04)\nAudio\nID : 1\nFormat : AC-3\nFormat/Info : Audio Coding 3\nMode extension : CM (complete main)\nFormat settings, Endianness : Big\nCodec ID : 2000\nDuration : 1h 30mn\nBit rate mode : Constant\nBit rate : 448 Kbps\nChannel(s) : 6 channels\nChannel positions : Front: L C R, Side: L R, LFE\nSampling rate : 48.0 KHz\nBit depth : 16 bits\nCompression mode : Lossy\nStream size : 291 MiB (32%)\nAlignment : Split accross interleaves\nInterleave, duration : 42 ms (1.00 video frame)\nInterleave, preload duration : 500 ms","torrent":{"xt":"urn:btih:d2563611754296e38cde2740ed37cfc220657ea3","amp;dn":"High+Tension+2003+DVDRip+Xvid+LKRG","amp;tr":["udp%3A%2F%2Ftracker.openbittorrent.com%3A80","udp%3A%2F%2Fopen.demonii.com%3A1337","udp%3A%2F%2Ftracker.coppersurfer.tk%3A6969","udp%3A%2F%2Fexodus.desync.com%3A6969"],"infoHash":"d2563611754296e38cde2740ed37cfc220657ea3","infoHashBuffer":{"type":"Buffer","data":[210,86,54,17,117,66,150,227,140,222,39,64,237,55,207,194,32,101,126,163]},"announce":[],"urlList":[]}}